<?xml version="1.0" standalone="no"?>
<svg width="64" height="64" viewBox="0 0 352 384" version="1.1" xmlns="http://www.w3.org/2000/svg">
  <path d="M0 96v204c0 75 82 84 176 84s176 -9 176 -84v-204c0 -18 -14 -24 -27 -36v-39c0 -12 -9 -21 -21 -21h-21c-12 0 -22 9 -22 21v22h-170v-22c0 -12 -10 -21 -22 -21h-21c-12 0 -21 9 -21 21v39c-13 12 -27 17 -27 36zM80 80c18 0 32 14 32 32s-14 32 -32 32 s-32 -14 -32 -32s14 -32 32 -32zM272 80c18 0 32 14 32 32s-14 32 -32 32s-32 -14 -32 -32s14 -32 32 -32zM304 203v106h-256v-106h256z" transform="matrix(1,0,0,-1,0,384)"/>
</svg>