<?xml version="1.0" standalone="no"?>
<svg width="64" height="64" viewBox="0 0 1024 768" version="1.1" xmlns="http://www.w3.org/2000/svg">
  <path d="M683 691q32 0 54 22.5t22 54.5t-22 54.5t-54 22.5t-54.5 -22.5t-22.5 -54.5t22.5 -54.5t54.5 -22.5zM810.5 384q-89.5 0 -151.5 -62t-62 -151.5t62 -151.5t151.5 -62t151.5 62t62 151.5t-62 151.5t-151.5 62zM810.5 21q-60.5 0 -105 44.5t-44.5 105t44.5 105t105 44.5    t105 -44.5t44.5 -105t-44.5 -105t-105 -44.5zM631 469h180v77h-137l-81 141q-20 34 -64 34q-30 0 -51 -21l-158 -158q-21 -21 -21 -51q0 -20 9 -37.5t25 -26.5l145 -86v-213h77v277l-94 73l98 98zM213.5 384q-89.5 0 -151.5 -62t-62 -151.5t62 -151.5t151.5 -62t151.5 62    t62 151.5t-62 151.5t-151.5 62zM213.5 21q-60.5 0 -105 44.5t-44.5 105t44.5 105t105 44.5t105 -44.5t44.5 -105t-44.5 -105t-105 -44.5z" transform="matrix(1,0,0,-1,0,768)"/>
</svg>