<?xml version="1.0" standalone="no"?>
<svg width="64" height="64" viewBox="0 0 1024 768" version="1.1" xmlns="http://www.w3.org/2000/svg">
  <path d="M768 555h-43v85q0 90 -61.5 151.5t-151.5 61.5t-151.5 -61.5t-61.5 -151.5v-85h-43q-35 0 -60 -25t-25 -61v-426q0 -36 25 -61t60 -25h512q35 0 60 25t25 61v426q0 36 -25 61t-60 25zM512 772q54 0 93 -39t39 -93v-85h-260v85h-4q0 54 39 93t93 39zM768 43h-512v426h512    v-426zM512 171q35 0 60 25t25 60t-25 60t-60 25t-60 -25t-25 -60t25 -60t60 -25z" transform="matrix(1,0,0,-1,0,768)"/>
</svg>