<?xml version="1.0" standalone="no"?>
<svg width="64" height="64" viewBox="0 0 420 384" version="1.1" xmlns="http://www.w3.org/2000/svg">
  <path d="M419 124c0 -1 1 -2 1 -3v-74v-13c0 -12 -9 -21 -19 -21h-282c-10 0 -18 9 -18 21v13v74c0 2 0 4 1 6c2 6 5 12 10 14l80 37l31 14c-14 8 -26 22 -34 38c-6 12 -9 25 -10 40v6v8c1 7 2 13 4 20c1 4 2 8 3 11c13 33 41 56 74 56v0v0c37 0 68 -29 78 -69c2 -8 4 -17 4 -26 c0 -16 -4 -31 -10 -44c-8 -17 -19 -30 -33 -39l32 -16l77 -36c6 -3 10 -10 11 -17zM155 190l-54 -25c-16 -8 -27 -25 -27 -44v-74h-59c-8 0 -15 8 -15 17v71c0 7 3 13 9 16l90 41l-2 1h-36c-5 0 -10 5 -10 10v26v0c2 62 37 111 80 111c9 0 17 -2 25 -6 c-8 -17 -13 -37 -13 -58c0 -30 10 -56 26 -78z" transform="matrix(1,0,0,-1,0,384)"/>
</svg>