<?xml version="1.0" encoding="utf-8"?>
<!-- Generator: Adobe Illustrator 16.0.0, SVG Export Plug-In . SVG Version: 6.00 Build 0)  -->
<!DOCTYPE svg PUBLIC "-//W3C//DTD SVG 1.1//EN" "http://www.w3.org/Graphics/SVG/1.1/DTD/svg11.dtd">
<svg version="1.1" id="图层_1" xmlns="http://www.w3.org/2000/svg" xmlns:xlink="http://www.w3.org/1999/xlink" x="0px" y="0px"
	 width="200px" height="200px" viewBox="0 0 200 200" enable-background="new 0 0 200 200" xml:space="preserve">
<path d="M193.752,41.252C193.752,14.46,145.448,0,100,0C54.815,0,6.812,14.292,6.254,40.786l-0.006-0.002v118.932l0.023,0.009
	C7.43,185.893,55.106,200,100,200c44.895,0,92.574-14.109,93.729-40.279l0.023-0.006V41.372h-0.002
	C193.75,41.332,193.752,41.292,193.752,41.252L193.752,41.252z M18.008,104.178C33.569,116.77,63.614,124.932,100,124.932
	c36.384,0,66.43-8.16,81.992-20.752v20.473c-3.938,13.189-36.508,26.826-81.992,26.826c-45.496,0-78.067-13.643-81.991-26.836
	L18.008,104.178L18.008,104.178z M181.992,86.342c-3.938,13.189-36.508,26.826-81.992,26.826c-45.495,0-78.067-13.644-81.992-26.835
	v-24.28C35.102,75.444,68.247,82.503,100,82.503c31.754,0,64.898-7.058,81.992-20.45V86.342L181.992,86.342z M100,11.766
	c47.344,0,82.723,15.568,82.723,29.486c0,13.919-35.379,29.487-82.723,29.487c-47.345,0-82.722-15.567-82.722-29.487
	C17.278,27.333,52.656,11.766,100,11.766L100,11.766z M100,188.234c-43.383,0-76.718-13.07-81.991-25.967v-19.781
	c15.56,12.594,45.605,20.755,81.991,20.755c36.384,0,66.43-8.161,81.992-20.753v19.777C176.719,175.164,143.384,188.234,100,188.234
	L100,188.234z"/>
</svg>
